<mxfile host="app.diagrams.net" modified="2023-12-04T09:36:48.142Z" agent="Mozilla/5.0 (Windows NT 10.0; Win64; x64; rv:120.0) Gecko/20100101 Firefox/120.0" etag="Kx0JYBmnGm_bgeo7Mmpr" version="22.1.5" type="device">
  <diagram name="Page-1" id="vrybKDEwfAuADzqzBmhp">
    <mxGraphModel dx="2086" dy="795" grid="1" gridSize="10" guides="1" tooltips="1" connect="1" arrows="1" fold="1" page="1" pageScale="1" pageWidth="827" pageHeight="1169" math="0" shadow="0">
      <root>
        <mxCell id="0" />
        <mxCell id="1" parent="0" />
        <mxCell id="QNAeS-Rhhrl9B6fxqUbB-5" value="" style="edgeStyle=orthogonalEdgeStyle;rounded=0;orthogonalLoop=1;jettySize=auto;html=1;" parent="1" source="QNAeS-Rhhrl9B6fxqUbB-1" target="QNAeS-Rhhrl9B6fxqUbB-4" edge="1">
          <mxGeometry relative="1" as="geometry" />
        </mxCell>
        <mxCell id="QNAeS-Rhhrl9B6fxqUbB-6" style="edgeStyle=orthogonalEdgeStyle;rounded=0;orthogonalLoop=1;jettySize=auto;html=1;entryX=0;entryY=0.5;entryDx=0;entryDy=0;exitX=1;exitY=0.75;exitDx=0;exitDy=0;" parent="1" source="QNAeS-Rhhrl9B6fxqUbB-1" target="QNAeS-Rhhrl9B6fxqUbB-3" edge="1">
          <mxGeometry relative="1" as="geometry">
            <Array as="points">
              <mxPoint x="150" y="615" />
              <mxPoint x="150" y="880" />
            </Array>
          </mxGeometry>
        </mxCell>
        <mxCell id="QNAeS-Rhhrl9B6fxqUbB-1" value="&lt;font style=&quot;font-size: 24px;&quot;&gt;PlusBus&lt;/font&gt;" style="rounded=0;html=1;fontSize=16;whiteSpace=wrap;" parent="1" vertex="1">
          <mxGeometry y="570" width="120" height="60" as="geometry" />
        </mxCell>
        <mxCell id="QNAeS-Rhhrl9B6fxqUbB-2" value="" style="endArrow=none;html=1;rounded=0;strokeWidth=2;dashed=1;" parent="1" edge="1">
          <mxGeometry width="50" height="50" relative="1" as="geometry">
            <mxPoint x="180" y="1100" as="sourcePoint" />
            <mxPoint x="180" y="120" as="targetPoint" />
          </mxGeometry>
        </mxCell>
        <mxCell id="QNAeS-Rhhrl9B6fxqUbB-10" value="" style="edgeStyle=orthogonalEdgeStyle;rounded=0;orthogonalLoop=1;jettySize=auto;html=1;exitX=0.082;exitY=-0.012;exitDx=0;exitDy=0;exitPerimeter=0;" parent="1" source="QNAeS-Rhhrl9B6fxqUbB-3" target="QNAeS-Rhhrl9B6fxqUbB-9" edge="1">
          <mxGeometry relative="1" as="geometry">
            <mxPoint x="270" y="850" as="sourcePoint" />
          </mxGeometry>
        </mxCell>
        <mxCell id="QNAeS-Rhhrl9B6fxqUbB-3" value="&lt;font style=&quot;font-size: 24px;&quot;&gt;Clock Sync&lt;br&gt;&lt;/font&gt;" style="rounded=0;html=1;whiteSpace=wrap;" parent="1" vertex="1">
          <mxGeometry x="240" y="850" width="120" height="60" as="geometry" />
        </mxCell>
        <mxCell id="QNAeS-Rhhrl9B6fxqUbB-12" value="" style="edgeStyle=orthogonalEdgeStyle;rounded=0;orthogonalLoop=1;jettySize=auto;html=1;" parent="1" source="QNAeS-Rhhrl9B6fxqUbB-4" target="QNAeS-Rhhrl9B6fxqUbB-11" edge="1">
          <mxGeometry relative="1" as="geometry" />
        </mxCell>
        <mxCell id="QNAeS-Rhhrl9B6fxqUbB-18" style="edgeStyle=orthogonalEdgeStyle;rounded=0;orthogonalLoop=1;jettySize=auto;html=1;entryX=0;entryY=0.5;entryDx=0;entryDy=0;exitX=1;exitY=0.5;exitDx=0;exitDy=0;" parent="1" source="QNAeS-Rhhrl9B6fxqUbB-4" target="QNAeS-Rhhrl9B6fxqUbB-15" edge="1">
          <mxGeometry relative="1" as="geometry">
            <mxPoint x="379" y="600" as="sourcePoint" />
          </mxGeometry>
        </mxCell>
        <mxCell id="QNAeS-Rhhrl9B6fxqUbB-19" style="edgeStyle=orthogonalEdgeStyle;rounded=0;orthogonalLoop=1;jettySize=auto;html=1;entryX=0;entryY=0.5;entryDx=0;entryDy=0;exitX=1;exitY=0.5;exitDx=0;exitDy=0;" parent="1" source="QNAeS-Rhhrl9B6fxqUbB-4" target="QNAeS-Rhhrl9B6fxqUbB-16" edge="1">
          <mxGeometry relative="1" as="geometry">
            <mxPoint x="379" y="600" as="sourcePoint" />
            <Array as="points">
              <mxPoint x="450" y="600" />
              <mxPoint x="450" y="360" />
            </Array>
          </mxGeometry>
        </mxCell>
        <mxCell id="QNAeS-Rhhrl9B6fxqUbB-66" style="edgeStyle=orthogonalEdgeStyle;rounded=0;orthogonalLoop=1;jettySize=auto;html=1;entryX=0;entryY=0.5;entryDx=0;entryDy=0;exitX=0.344;exitY=0.645;exitDx=0;exitDy=0;exitPerimeter=0;" parent="1" source="QNAeS-Rhhrl9B6fxqUbB-76" target="QNAeS-Rhhrl9B6fxqUbB-17" edge="1">
          <mxGeometry relative="1" as="geometry">
            <Array as="points">
              <mxPoint x="450" y="840" />
            </Array>
          </mxGeometry>
        </mxCell>
        <mxCell id="QNAeS-Rhhrl9B6fxqUbB-4" value="&lt;font style=&quot;font-size: 24px;&quot;&gt;PlusBus Slave Controller&lt;br&gt;&lt;/font&gt;" style="rounded=0;html=1;whiteSpace=wrap;" parent="1" vertex="1">
          <mxGeometry x="240" y="550" width="120" height="100" as="geometry" />
        </mxCell>
        <mxCell id="QNAeS-Rhhrl9B6fxqUbB-9" value="&lt;font style=&quot;font-size: 24px;&quot;&gt;Com Clk&lt;br&gt;&lt;/font&gt;" style="shape=offPageConnector;html=1;whiteSpace=wrap;" parent="1" vertex="1">
          <mxGeometry x="210" y="730" width="80" height="80" as="geometry" />
        </mxCell>
        <mxCell id="QNAeS-Rhhrl9B6fxqUbB-14" value="" style="edgeStyle=orthogonalEdgeStyle;rounded=0;orthogonalLoop=1;jettySize=auto;html=1;" parent="1" source="QNAeS-Rhhrl9B6fxqUbB-11" target="QNAeS-Rhhrl9B6fxqUbB-13" edge="1">
          <mxGeometry relative="1" as="geometry" />
        </mxCell>
        <mxCell id="QNAeS-Rhhrl9B6fxqUbB-11" value="&lt;font style=&quot;font-size: 24px;&quot;&gt;Reset Logic&lt;br&gt;&lt;/font&gt;" style="rounded=0;html=1;fontSize=16;whiteSpace=wrap;" parent="1" vertex="1">
          <mxGeometry x="240" y="450" width="120" height="60" as="geometry" />
        </mxCell>
        <mxCell id="QNAeS-Rhhrl9B6fxqUbB-13" value="&lt;font style=&quot;font-size: 24px;&quot;&gt;RST&lt;/font&gt;" style="shape=offPageConnector;html=1;whiteSpace=wrap;" parent="1" vertex="1">
          <mxGeometry x="260" y="310" width="80" height="80" as="geometry" />
        </mxCell>
        <mxCell id="QNAeS-Rhhrl9B6fxqUbB-36" style="edgeStyle=orthogonalEdgeStyle;rounded=0;orthogonalLoop=1;jettySize=auto;html=1;entryX=0;entryY=0.5;entryDx=0;entryDy=0;" parent="1" source="QNAeS-Rhhrl9B6fxqUbB-15" target="QNAeS-Rhhrl9B6fxqUbB-33" edge="1">
          <mxGeometry relative="1" as="geometry" />
        </mxCell>
        <mxCell id="QNAeS-Rhhrl9B6fxqUbB-15" value="&lt;font style=&quot;font-size: 24px;&quot;&gt;Rounds Parser&lt;br&gt;&lt;/font&gt;" style="rounded=0;html=1;fontSize=16;whiteSpace=wrap;" parent="1" vertex="1">
          <mxGeometry x="499" y="570" width="120" height="60" as="geometry" />
        </mxCell>
        <mxCell id="QNAeS-Rhhrl9B6fxqUbB-34" style="edgeStyle=orthogonalEdgeStyle;rounded=0;orthogonalLoop=1;jettySize=auto;html=1;entryX=0;entryY=0.25;entryDx=0;entryDy=0;" parent="1" source="QNAeS-Rhhrl9B6fxqUbB-16" target="QNAeS-Rhhrl9B6fxqUbB-33" edge="1">
          <mxGeometry relative="1" as="geometry">
            <Array as="points">
              <mxPoint x="660" y="360" />
              <mxPoint x="660" y="585" />
            </Array>
          </mxGeometry>
        </mxCell>
        <mxCell id="QNAeS-Rhhrl9B6fxqUbB-16" value="&lt;font style=&quot;font-size: 24px;&quot;&gt;Hash Parser&lt;br&gt;&lt;/font&gt;" style="rounded=0;html=1;fontSize=16;whiteSpace=wrap;" parent="1" vertex="1">
          <mxGeometry x="499" y="330" width="120" height="60" as="geometry" />
        </mxCell>
        <mxCell id="QNAeS-Rhhrl9B6fxqUbB-37" style="edgeStyle=orthogonalEdgeStyle;rounded=0;orthogonalLoop=1;jettySize=auto;html=1;entryX=0;entryY=0.75;entryDx=0;entryDy=0;" parent="1" source="QNAeS-Rhhrl9B6fxqUbB-17" target="QNAeS-Rhhrl9B6fxqUbB-33" edge="1">
          <mxGeometry relative="1" as="geometry">
            <Array as="points">
              <mxPoint x="660" y="840" />
              <mxPoint x="660" y="615" />
            </Array>
          </mxGeometry>
        </mxCell>
        <mxCell id="QNAeS-Rhhrl9B6fxqUbB-17" value="&lt;font style=&quot;font-size: 24px;&quot;&gt;Password Parser&lt;br&gt;&lt;/font&gt;" style="rounded=0;html=1;fontSize=16;whiteSpace=wrap;" parent="1" vertex="1">
          <mxGeometry x="499" y="810" width="120" height="60" as="geometry" />
        </mxCell>
        <mxCell id="QNAeS-Rhhrl9B6fxqUbB-22" value="" style="edgeStyle=orthogonalEdgeStyle;rounded=0;orthogonalLoop=1;jettySize=auto;html=1;" parent="1" edge="1">
          <mxGeometry relative="1" as="geometry">
            <mxPoint x="509" y="290" as="sourcePoint" />
            <mxPoint x="509" y="330" as="targetPoint" />
          </mxGeometry>
        </mxCell>
        <mxCell id="QNAeS-Rhhrl9B6fxqUbB-21" value="&lt;font style=&quot;font-size: 24px;&quot;&gt;Com Clk&lt;br&gt;&lt;/font&gt;" style="shape=offPageConnector;html=1;whiteSpace=wrap;" parent="1" vertex="1">
          <mxGeometry x="469" y="210" width="80" height="80" as="geometry" />
        </mxCell>
        <mxCell id="QNAeS-Rhhrl9B6fxqUbB-23" value="" style="edgeStyle=orthogonalEdgeStyle;rounded=0;orthogonalLoop=1;jettySize=auto;html=1;" parent="1" source="QNAeS-Rhhrl9B6fxqUbB-24" edge="1">
          <mxGeometry relative="1" as="geometry">
            <mxPoint x="509" y="570" as="targetPoint" />
          </mxGeometry>
        </mxCell>
        <mxCell id="QNAeS-Rhhrl9B6fxqUbB-24" value="&lt;font style=&quot;font-size: 24px;&quot;&gt;Com Clk&lt;br&gt;&lt;/font&gt;" style="shape=offPageConnector;html=1;whiteSpace=wrap;" parent="1" vertex="1">
          <mxGeometry x="469" y="450" width="80" height="80" as="geometry" />
        </mxCell>
        <mxCell id="QNAeS-Rhhrl9B6fxqUbB-25" value="" style="edgeStyle=orthogonalEdgeStyle;rounded=0;orthogonalLoop=1;jettySize=auto;html=1;" parent="1" edge="1">
          <mxGeometry relative="1" as="geometry">
            <mxPoint x="509" y="810" as="targetPoint" />
            <mxPoint x="509" y="770" as="sourcePoint" />
          </mxGeometry>
        </mxCell>
        <mxCell id="QNAeS-Rhhrl9B6fxqUbB-26" value="&lt;font style=&quot;font-size: 24px;&quot;&gt;Com Clk&lt;br&gt;&lt;/font&gt;" style="shape=offPageConnector;html=1;whiteSpace=wrap;" parent="1" vertex="1">
          <mxGeometry x="469" y="690" width="80" height="80" as="geometry" />
        </mxCell>
        <mxCell id="QNAeS-Rhhrl9B6fxqUbB-28" value="" style="edgeStyle=orthogonalEdgeStyle;rounded=0;orthogonalLoop=1;jettySize=auto;html=1;entryX=0.917;entryY=0;entryDx=0;entryDy=0;entryPerimeter=0;" parent="1" source="QNAeS-Rhhrl9B6fxqUbB-27" target="QNAeS-Rhhrl9B6fxqUbB-16" edge="1">
          <mxGeometry relative="1" as="geometry" />
        </mxCell>
        <mxCell id="QNAeS-Rhhrl9B6fxqUbB-27" value="&lt;font style=&quot;font-size: 24px;&quot;&gt;RST&lt;/font&gt;" style="shape=offPageConnector;html=1;whiteSpace=wrap;" parent="1" vertex="1">
          <mxGeometry x="569" y="210" width="80" height="80" as="geometry" />
        </mxCell>
        <mxCell id="QNAeS-Rhhrl9B6fxqUbB-29" value="" style="edgeStyle=orthogonalEdgeStyle;rounded=0;orthogonalLoop=1;jettySize=auto;html=1;entryX=0.917;entryY=0;entryDx=0;entryDy=0;entryPerimeter=0;" parent="1" source="QNAeS-Rhhrl9B6fxqUbB-30" edge="1">
          <mxGeometry relative="1" as="geometry">
            <mxPoint x="609" y="570" as="targetPoint" />
          </mxGeometry>
        </mxCell>
        <mxCell id="QNAeS-Rhhrl9B6fxqUbB-30" value="&lt;font style=&quot;font-size: 24px;&quot;&gt;RST&lt;/font&gt;" style="shape=offPageConnector;html=1;whiteSpace=wrap;" parent="1" vertex="1">
          <mxGeometry x="569" y="450" width="80" height="80" as="geometry" />
        </mxCell>
        <mxCell id="QNAeS-Rhhrl9B6fxqUbB-31" value="" style="edgeStyle=orthogonalEdgeStyle;rounded=0;orthogonalLoop=1;jettySize=auto;html=1;entryX=0.917;entryY=0;entryDx=0;entryDy=0;entryPerimeter=0;" parent="1" source="QNAeS-Rhhrl9B6fxqUbB-32" edge="1">
          <mxGeometry relative="1" as="geometry">
            <mxPoint x="609" y="810" as="targetPoint" />
          </mxGeometry>
        </mxCell>
        <mxCell id="QNAeS-Rhhrl9B6fxqUbB-32" value="&lt;font style=&quot;font-size: 24px;&quot;&gt;RST&lt;/font&gt;" style="shape=offPageConnector;html=1;whiteSpace=wrap;" parent="1" vertex="1">
          <mxGeometry x="569" y="690" width="80" height="80" as="geometry" />
        </mxCell>
        <mxCell id="QNAeS-Rhhrl9B6fxqUbB-40" style="edgeStyle=orthogonalEdgeStyle;rounded=0;orthogonalLoop=1;jettySize=auto;html=1;entryX=0.5;entryY=0;entryDx=0;entryDy=0;" parent="1" source="QNAeS-Rhhrl9B6fxqUbB-33" target="QNAeS-Rhhrl9B6fxqUbB-39" edge="1">
          <mxGeometry relative="1" as="geometry">
            <Array as="points">
              <mxPoint x="820" y="710" />
              <mxPoint x="820" y="710" />
            </Array>
          </mxGeometry>
        </mxCell>
        <mxCell id="QNAeS-Rhhrl9B6fxqUbB-41" style="edgeStyle=orthogonalEdgeStyle;rounded=0;orthogonalLoop=1;jettySize=auto;html=1;entryX=1;entryY=0.25;entryDx=0;entryDy=0;exitX=0.25;exitY=1;exitDx=0;exitDy=0;" parent="1" source="QNAeS-Rhhrl9B6fxqUbB-33" target="QNAeS-Rhhrl9B6fxqUbB-38" edge="1">
          <mxGeometry relative="1" as="geometry">
            <Array as="points">
              <mxPoint x="740" y="630" />
              <mxPoint x="740" y="925" />
            </Array>
          </mxGeometry>
        </mxCell>
        <mxCell id="QNAeS-Rhhrl9B6fxqUbB-33" value="&lt;font style=&quot;font-size: 24px;&quot;&gt;Core Controller&lt;br&gt;&lt;/font&gt;" style="rounded=0;html=1;fontSize=16;whiteSpace=wrap;" parent="1" vertex="1">
          <mxGeometry x="720" y="570" width="160" height="60" as="geometry" />
        </mxCell>
        <mxCell id="QNAeS-Rhhrl9B6fxqUbB-54" style="edgeStyle=orthogonalEdgeStyle;rounded=0;orthogonalLoop=1;jettySize=auto;html=1;entryX=0.5;entryY=1;entryDx=0;entryDy=0;" parent="1" source="QNAeS-Rhhrl9B6fxqUbB-38" target="QNAeS-Rhhrl9B6fxqUbB-4" edge="1">
          <mxGeometry relative="1" as="geometry">
            <Array as="points">
              <mxPoint x="400" y="950" />
              <mxPoint x="400" y="680" />
              <mxPoint x="300" y="680" />
            </Array>
          </mxGeometry>
        </mxCell>
        <mxCell id="QNAeS-Rhhrl9B6fxqUbB-38" value="&lt;font style=&quot;font-size: 24px;&quot;&gt;Message Sender&lt;font&gt;&lt;br&gt;&lt;/font&gt;&lt;/font&gt;" style="rounded=0;html=1;fontSize=16;whiteSpace=wrap;" parent="1" vertex="1">
          <mxGeometry x="560" y="910" width="120" height="60" as="geometry" />
        </mxCell>
        <mxCell id="QNAeS-Rhhrl9B6fxqUbB-42" style="edgeStyle=orthogonalEdgeStyle;rounded=0;orthogonalLoop=1;jettySize=auto;html=1;entryX=1;entryY=0.75;entryDx=0;entryDy=0;exitX=0;exitY=0.75;exitDx=0;exitDy=0;" parent="1" source="QNAeS-Rhhrl9B6fxqUbB-39" target="QNAeS-Rhhrl9B6fxqUbB-38" edge="1">
          <mxGeometry relative="1" as="geometry" />
        </mxCell>
        <mxCell id="QNAeS-Rhhrl9B6fxqUbB-39" value="&lt;font style=&quot;font-size: 24px;&quot;&gt;Flags&lt;/font&gt;" style="rounded=0;html=1;fontSize=16;whiteSpace=wrap;" parent="1" vertex="1">
          <mxGeometry x="760" y="910" width="120" height="60" as="geometry" />
        </mxCell>
        <mxCell id="QNAeS-Rhhrl9B6fxqUbB-53" style="edgeStyle=orthogonalEdgeStyle;rounded=0;orthogonalLoop=1;jettySize=auto;html=1;entryX=0.5;entryY=0;entryDx=0;entryDy=0;exitX=0.5;exitY=1;exitDx=0;exitDy=0;" parent="1" edge="1">
          <mxGeometry relative="1" as="geometry">
            <mxPoint x="819" y="500" as="sourcePoint" />
            <mxPoint x="819" y="570" as="targetPoint" />
          </mxGeometry>
        </mxCell>
        <mxCell id="QNAeS-Rhhrl9B6fxqUbB-44" value="" style="rounded=0;html=1;fontSize=16;gradientColor=none;fillColor=none;dashed=1;strokeWidth=2;strokeColor=#3333FF;whiteSpace=wrap;" parent="1" vertex="1">
          <mxGeometry x="695" y="300" width="210" height="220" as="geometry" />
        </mxCell>
        <mxCell id="QNAeS-Rhhrl9B6fxqUbB-49" style="edgeStyle=orthogonalEdgeStyle;rounded=0;orthogonalLoop=1;jettySize=auto;html=1;entryX=0.332;entryY=0.998;entryDx=0;entryDy=0;entryPerimeter=0;" parent="1" source="QNAeS-Rhhrl9B6fxqUbB-43" target="QNAeS-Rhhrl9B6fxqUbB-45" edge="1">
          <mxGeometry relative="1" as="geometry">
            <Array as="points">
              <mxPoint x="780" y="410" />
              <mxPoint x="780" y="410" />
            </Array>
          </mxGeometry>
        </mxCell>
        <mxCell id="QNAeS-Rhhrl9B6fxqUbB-43" value="&lt;font style=&quot;font-size: 24px;&quot;&gt;Multi Round Hasher&lt;br&gt;&lt;/font&gt;" style="rounded=0;html=1;fontSize=16;whiteSpace=wrap;" parent="1" vertex="1">
          <mxGeometry x="730" y="420" width="140" height="80" as="geometry" />
        </mxCell>
        <mxCell id="QNAeS-Rhhrl9B6fxqUbB-47" value="" style="edgeStyle=orthogonalEdgeStyle;rounded=0;orthogonalLoop=1;jettySize=auto;html=1;" parent="1" source="QNAeS-Rhhrl9B6fxqUbB-45" target="QNAeS-Rhhrl9B6fxqUbB-43" edge="1">
          <mxGeometry relative="1" as="geometry">
            <Array as="points">
              <mxPoint x="820" y="400" />
              <mxPoint x="820" y="400" />
            </Array>
          </mxGeometry>
        </mxCell>
        <mxCell id="QNAeS-Rhhrl9B6fxqUbB-45" value="&lt;font style=&quot;font-size: 24px;&quot;&gt;Hash Core&lt;br&gt;&lt;/font&gt;" style="rounded=0;html=1;fontSize=16;whiteSpace=wrap;" parent="1" vertex="1">
          <mxGeometry x="740" y="320" width="120" height="60" as="geometry" />
        </mxCell>
        <mxCell id="QNAeS-Rhhrl9B6fxqUbB-50" value="&lt;font color=&quot;#3333ff&quot; style=&quot;font-size: 24px;&quot;&gt;x N&lt;br&gt;&lt;/font&gt;" style="text;html=1;strokeColor=none;fillColor=none;align=center;verticalAlign=middle;rounded=0;whiteSpace=wrap;" parent="1" vertex="1">
          <mxGeometry x="912" y="360" width="60" height="30" as="geometry" />
        </mxCell>
        <mxCell id="QNAeS-Rhhrl9B6fxqUbB-52" style="edgeStyle=orthogonalEdgeStyle;rounded=0;orthogonalLoop=1;jettySize=auto;html=1;entryX=0.25;entryY=1;entryDx=0;entryDy=0;" parent="1" edge="1">
          <mxGeometry relative="1" as="geometry">
            <mxPoint x="779" y="570" as="sourcePoint" />
            <mxPoint x="779" y="500" as="targetPoint" />
            <Array as="points">
              <mxPoint x="779" y="530" />
              <mxPoint x="779" y="530" />
            </Array>
          </mxGeometry>
        </mxCell>
        <mxCell id="QNAeS-Rhhrl9B6fxqUbB-56" value="&lt;div&gt;&lt;font style=&quot;font-size: 36px;&quot;&gt;Inside&amp;nbsp;&lt;/font&gt;&lt;span style=&quot;font-size: 36px; background-color: initial;&quot;&gt;The Node&lt;/span&gt;&lt;/div&gt;" style="text;html=1;strokeColor=none;fillColor=none;align=center;verticalAlign=middle;rounded=0;whiteSpace=wrap;" parent="1" vertex="1">
          <mxGeometry x="175" y="170" width="210" height="30" as="geometry" />
        </mxCell>
        <mxCell id="QNAeS-Rhhrl9B6fxqUbB-58" value="&lt;font style=&quot;font-size: 36px;&quot;&gt;Outside&amp;nbsp;&lt;font&gt;The Node&lt;/font&gt;&lt;/font&gt;" style="text;html=1;strokeColor=none;fillColor=none;align=center;verticalAlign=middle;rounded=0;whiteSpace=wrap;" parent="1" vertex="1">
          <mxGeometry x="-20" y="145" width="165" height="80" as="geometry" />
        </mxCell>
        <mxCell id="QNAeS-Rhhrl9B6fxqUbB-61" value="&lt;font style=&quot;font-size: 24px;&quot;&gt;2&lt;/font&gt;" style="text;html=1;strokeColor=none;fillColor=none;align=center;verticalAlign=middle;rounded=0;whiteSpace=wrap;" parent="1" vertex="1">
          <mxGeometry x="440" y="330" width="60" height="30" as="geometry" />
        </mxCell>
        <mxCell id="QNAeS-Rhhrl9B6fxqUbB-62" value="&lt;font style=&quot;font-size: 24px;&quot;&gt;1&lt;/font&gt;" style="text;html=1;strokeColor=none;fillColor=none;align=center;verticalAlign=middle;rounded=0;whiteSpace=wrap;" parent="1" vertex="1">
          <mxGeometry x="190" y="570" width="60" height="30" as="geometry" />
        </mxCell>
        <mxCell id="QNAeS-Rhhrl9B6fxqUbB-63" value="&lt;font style=&quot;font-size: 24px;&quot;&gt;3&lt;/font&gt;" style="text;html=1;strokeColor=none;fillColor=none;align=center;verticalAlign=middle;rounded=0;whiteSpace=wrap;" parent="1" vertex="1">
          <mxGeometry x="440" y="570" width="60" height="30" as="geometry" />
        </mxCell>
        <mxCell id="QNAeS-Rhhrl9B6fxqUbB-67" value="&lt;font style=&quot;font-size: 24px;&quot;&gt;4&lt;/font&gt;" style="text;html=1;strokeColor=none;fillColor=none;align=center;verticalAlign=middle;rounded=0;whiteSpace=wrap;" parent="1" vertex="1">
          <mxGeometry x="440" y="810" width="60" height="30" as="geometry" />
        </mxCell>
        <mxCell id="QNAeS-Rhhrl9B6fxqUbB-68" value="&lt;font style=&quot;font-size: 24px;&quot;&gt;5&lt;/font&gt;" style="text;html=1;strokeColor=none;fillColor=none;align=center;verticalAlign=middle;rounded=0;whiteSpace=wrap;" parent="1" vertex="1">
          <mxGeometry x="660" y="555" width="60" height="30" as="geometry" />
        </mxCell>
        <mxCell id="QNAeS-Rhhrl9B6fxqUbB-69" value="" style="endArrow=classic;html=1;rounded=0;exitX=0.75;exitY=1;exitDx=0;exitDy=0;entryX=1;entryY=0.5;entryDx=0;entryDy=0;" parent="1" target="QNAeS-Rhhrl9B6fxqUbB-1" edge="1">
          <mxGeometry width="50" height="50" relative="1" as="geometry">
            <mxPoint x="235" y="600" as="sourcePoint" />
            <mxPoint x="300" y="600" as="targetPoint" />
          </mxGeometry>
        </mxCell>
        <mxCell id="QNAeS-Rhhrl9B6fxqUbB-71" value="&lt;font style=&quot;font-size: 24px;&quot;&gt;6&lt;/font&gt;" style="text;html=1;strokeColor=none;fillColor=none;align=center;verticalAlign=middle;rounded=0;whiteSpace=wrap;" parent="1" vertex="1">
          <mxGeometry x="770" y="530" width="60" height="30" as="geometry" />
        </mxCell>
        <mxCell id="QNAeS-Rhhrl9B6fxqUbB-72" value="&lt;font style=&quot;font-size: 24px;&quot;&gt;7&lt;/font&gt;" style="text;html=1;strokeColor=none;fillColor=none;align=center;verticalAlign=middle;rounded=0;whiteSpace=wrap;" parent="1" vertex="1">
          <mxGeometry x="680" y="890" width="60" height="30" as="geometry" />
        </mxCell>
        <mxCell id="QNAeS-Rhhrl9B6fxqUbB-73" value="&lt;font style=&quot;font-size: 18px;&quot;&gt;Synchronized PlusBus clock&lt;br&gt;&lt;/font&gt;" style="text;html=1;strokeColor=none;fillColor=none;align=center;verticalAlign=middle;rounded=0;whiteSpace=wrap;" parent="1" vertex="1">
          <mxGeometry x="283" y="692" width="100" height="90" as="geometry" />
        </mxCell>
        <mxCell id="QNAeS-Rhhrl9B6fxqUbB-75" value="&lt;font style=&quot;font-size: 24px;&quot;&gt;8&lt;/font&gt;" style="text;html=1;strokeColor=none;fillColor=none;align=center;verticalAlign=middle;rounded=0;whiteSpace=wrap;" parent="1" vertex="1">
          <mxGeometry x="820" y="880" width="60" height="30" as="geometry" />
        </mxCell>
        <mxCell id="QNAeS-Rhhrl9B6fxqUbB-76" value="" style="shape=waypoint;sketch=0;fillStyle=solid;size=6;pointerEvents=1;points=[];fillColor=none;resizable=0;rotatable=0;perimeter=centerPerimeter;snapToPoint=1;" parent="1" vertex="1">
          <mxGeometry x="440" y="590" width="20" height="20" as="geometry" />
        </mxCell>
        <mxCell id="QNAeS-Rhhrl9B6fxqUbB-77" value="&lt;font style=&quot;font-size: 24px;&quot;&gt;9&lt;/font&gt;" style="text;html=1;strokeColor=none;fillColor=none;align=center;verticalAlign=middle;rounded=0;whiteSpace=wrap;" parent="1" vertex="1">
          <mxGeometry x="283" y="650" width="60" height="30" as="geometry" />
        </mxCell>
        <mxCell id="QNAeS-Rhhrl9B6fxqUbB-79" value="" style="endArrow=classic;html=1;rounded=0;exitX=0.665;exitY=1.001;exitDx=0;exitDy=0;entryX=-0.004;entryY=0.325;entryDx=0;entryDy=0;entryPerimeter=0;exitPerimeter=0;" parent="1" source="QNAeS-Rhhrl9B6fxqUbB-4" target="QNAeS-Rhhrl9B6fxqUbB-38" edge="1">
          <mxGeometry width="50" height="50" relative="1" as="geometry">
            <mxPoint x="480" y="760" as="sourcePoint" />
            <mxPoint x="530" y="710" as="targetPoint" />
            <Array as="points">
              <mxPoint x="320" y="660" />
              <mxPoint x="420" y="660" />
              <mxPoint x="420" y="930" />
              <mxPoint x="490" y="930" />
            </Array>
          </mxGeometry>
        </mxCell>
        <mxCell id="QNAeS-Rhhrl9B6fxqUbB-80" value="" style="edgeStyle=orthogonalEdgeStyle;rounded=0;orthogonalLoop=1;jettySize=auto;html=1;entryX=1;entryY=0.5;entryDx=0;entryDy=0;exitX=0.5;exitY=1;exitDx=0;exitDy=0;" parent="1" source="QNAeS-Rhhrl9B6fxqUbB-81" target="QNAeS-Rhhrl9B6fxqUbB-43" edge="1">
          <mxGeometry relative="1" as="geometry">
            <mxPoint x="952" y="590" as="targetPoint" />
          </mxGeometry>
        </mxCell>
        <mxCell id="QNAeS-Rhhrl9B6fxqUbB-81" value="&lt;font style=&quot;font-size: 24px;&quot;&gt;RST&lt;/font&gt;" style="shape=offPageConnector;html=1;rotation=90;whiteSpace=wrap;" parent="1" vertex="1">
          <mxGeometry x="920" y="420" width="80" height="80" as="geometry" />
        </mxCell>
        <mxCell id="QNAeS-Rhhrl9B6fxqUbB-82" value="" style="edgeStyle=orthogonalEdgeStyle;rounded=0;orthogonalLoop=1;jettySize=auto;html=1;entryX=1;entryY=0.5;entryDx=0;entryDy=0;exitX=0.5;exitY=1;exitDx=0;exitDy=0;" parent="1" source="QNAeS-Rhhrl9B6fxqUbB-83" edge="1">
          <mxGeometry relative="1" as="geometry">
            <mxPoint x="877" y="600" as="targetPoint" />
          </mxGeometry>
        </mxCell>
        <mxCell id="QNAeS-Rhhrl9B6fxqUbB-83" value="&lt;font style=&quot;font-size: 24px;&quot;&gt;RST&lt;/font&gt;" style="shape=offPageConnector;html=1;rotation=90;whiteSpace=wrap;" parent="1" vertex="1">
          <mxGeometry x="920" y="560" width="80" height="80" as="geometry" />
        </mxCell>
        <mxCell id="QNAeS-Rhhrl9B6fxqUbB-85" value="" style="edgeStyle=orthogonalEdgeStyle;rounded=0;orthogonalLoop=1;jettySize=auto;html=1;" parent="1" source="QNAeS-Rhhrl9B6fxqUbB-84" target="QNAeS-Rhhrl9B6fxqUbB-38" edge="1">
          <mxGeometry relative="1" as="geometry" />
        </mxCell>
        <mxCell id="QNAeS-Rhhrl9B6fxqUbB-84" value="&lt;font style=&quot;font-size: 24px;&quot;&gt;RST&lt;/font&gt;" style="shape=offPageConnector;html=1;rotation=-180;whiteSpace=wrap;" parent="1" vertex="1">
          <mxGeometry x="580" y="1000" width="80" height="80" as="geometry" />
        </mxCell>
        <mxCell id="zRBWIgNnjNdCYjkqJpxC-1" value="" style="endArrow=none;html=1;rounded=0;" edge="1" parent="1">
          <mxGeometry width="50" height="50" relative="1" as="geometry">
            <mxPoint x="155" y="610" as="sourcePoint" />
            <mxPoint x="175" y="590" as="targetPoint" />
          </mxGeometry>
        </mxCell>
        <mxCell id="zRBWIgNnjNdCYjkqJpxC-4" value="" style="endArrow=none;html=1;rounded=0;" edge="1" parent="1">
          <mxGeometry width="50" height="50" relative="1" as="geometry">
            <mxPoint x="390" y="610" as="sourcePoint" />
            <mxPoint x="410" y="590" as="targetPoint" />
          </mxGeometry>
        </mxCell>
        <mxCell id="zRBWIgNnjNdCYjkqJpxC-6" value="" style="endArrow=none;html=1;rounded=0;" edge="1" parent="1">
          <mxGeometry width="50" height="50" relative="1" as="geometry">
            <mxPoint x="650" y="410" as="sourcePoint" />
            <mxPoint x="670" y="390" as="targetPoint" />
          </mxGeometry>
        </mxCell>
        <mxCell id="zRBWIgNnjNdCYjkqJpxC-7" value="" style="endArrow=none;html=1;rounded=0;" edge="1" parent="1">
          <mxGeometry width="50" height="50" relative="1" as="geometry">
            <mxPoint x="650" y="670" as="sourcePoint" />
            <mxPoint x="670" y="650" as="targetPoint" />
          </mxGeometry>
        </mxCell>
        <mxCell id="zRBWIgNnjNdCYjkqJpxC-8" value="" style="endArrow=none;html=1;rounded=0;" edge="1" parent="1">
          <mxGeometry width="50" height="50" relative="1" as="geometry">
            <mxPoint x="630" y="610" as="sourcePoint" />
            <mxPoint x="650" y="590" as="targetPoint" />
          </mxGeometry>
        </mxCell>
        <mxCell id="zRBWIgNnjNdCYjkqJpxC-9" value="" style="endArrow=none;html=1;rounded=0;" edge="1" parent="1">
          <mxGeometry width="50" height="50" relative="1" as="geometry">
            <mxPoint x="730" y="675" as="sourcePoint" />
            <mxPoint x="750" y="655" as="targetPoint" />
          </mxGeometry>
        </mxCell>
        <mxCell id="zRBWIgNnjNdCYjkqJpxC-10" value="" style="endArrow=none;html=1;rounded=0;" edge="1" parent="1">
          <mxGeometry width="50" height="50" relative="1" as="geometry">
            <mxPoint x="810" y="675" as="sourcePoint" />
            <mxPoint x="830" y="655" as="targetPoint" />
          </mxGeometry>
        </mxCell>
        <mxCell id="zRBWIgNnjNdCYjkqJpxC-11" value="" style="endArrow=none;html=1;rounded=0;" edge="1" parent="1">
          <mxGeometry width="50" height="50" relative="1" as="geometry">
            <mxPoint x="720" y="965" as="sourcePoint" />
            <mxPoint x="740" y="945" as="targetPoint" />
          </mxGeometry>
        </mxCell>
        <mxCell id="zRBWIgNnjNdCYjkqJpxC-12" value="" style="endArrow=none;html=1;rounded=0;" edge="1" parent="1">
          <mxGeometry width="50" height="50" relative="1" as="geometry">
            <mxPoint x="490" y="960" as="sourcePoint" />
            <mxPoint x="510" y="940" as="targetPoint" />
          </mxGeometry>
        </mxCell>
        <mxCell id="zRBWIgNnjNdCYjkqJpxC-13" value="" style="endArrow=none;html=1;rounded=0;" edge="1" parent="1">
          <mxGeometry width="50" height="50" relative="1" as="geometry">
            <mxPoint x="370" y="670" as="sourcePoint" />
            <mxPoint x="390" y="650" as="targetPoint" />
          </mxGeometry>
        </mxCell>
        <mxCell id="zRBWIgNnjNdCYjkqJpxC-14" value="" style="endArrow=none;html=1;rounded=0;" edge="1" parent="1">
          <mxGeometry width="50" height="50" relative="1" as="geometry">
            <mxPoint x="770" y="550" as="sourcePoint" />
            <mxPoint x="790" y="530" as="targetPoint" />
          </mxGeometry>
        </mxCell>
        <mxCell id="zRBWIgNnjNdCYjkqJpxC-15" value="" style="endArrow=none;html=1;rounded=0;" edge="1" parent="1">
          <mxGeometry width="50" height="50" relative="1" as="geometry">
            <mxPoint x="810" y="550" as="sourcePoint" />
            <mxPoint x="830" y="530" as="targetPoint" />
          </mxGeometry>
        </mxCell>
        <mxCell id="zRBWIgNnjNdCYjkqJpxC-16" value="&lt;i&gt;256&lt;/i&gt;" style="text;html=1;strokeColor=none;fillColor=none;align=center;verticalAlign=middle;whiteSpace=wrap;rounded=0;" vertex="1" parent="1">
          <mxGeometry x="810" y="525" width="60" height="30" as="geometry" />
        </mxCell>
        <mxCell id="zRBWIgNnjNdCYjkqJpxC-17" value="&lt;i&gt;512&lt;/i&gt;" style="text;html=1;strokeColor=none;fillColor=none;align=center;verticalAlign=middle;whiteSpace=wrap;rounded=0;" vertex="1" parent="1">
          <mxGeometry x="730" y="525" width="60" height="30" as="geometry" />
        </mxCell>
        <mxCell id="zRBWIgNnjNdCYjkqJpxC-18" value="&lt;i&gt;512&lt;/i&gt;" style="text;html=1;strokeColor=none;fillColor=none;align=center;verticalAlign=middle;whiteSpace=wrap;rounded=0;" vertex="1" parent="1">
          <mxGeometry x="730" y="380" width="60" height="30" as="geometry" />
        </mxCell>
        <mxCell id="zRBWIgNnjNdCYjkqJpxC-19" value="&lt;i&gt;256&lt;/i&gt;" style="text;html=1;strokeColor=none;fillColor=none;align=center;verticalAlign=middle;whiteSpace=wrap;rounded=0;" vertex="1" parent="1">
          <mxGeometry x="810" y="380" width="60" height="30" as="geometry" />
        </mxCell>
        <mxCell id="zRBWIgNnjNdCYjkqJpxC-20" value="" style="endArrow=none;html=1;rounded=0;" edge="1" parent="1">
          <mxGeometry width="50" height="50" relative="1" as="geometry">
            <mxPoint x="830" y="385" as="sourcePoint" />
            <mxPoint x="810" y="405" as="targetPoint" />
          </mxGeometry>
        </mxCell>
        <mxCell id="zRBWIgNnjNdCYjkqJpxC-22" value="" style="endArrow=none;html=1;rounded=0;" edge="1" parent="1">
          <mxGeometry width="50" height="50" relative="1" as="geometry">
            <mxPoint x="790" y="390" as="sourcePoint" />
            <mxPoint x="770" y="410" as="targetPoint" />
          </mxGeometry>
        </mxCell>
      </root>
    </mxGraphModel>
  </diagram>
</mxfile>
